<mxfile host="app.diagrams.net" modified="2024-03-13T09:42:50.707Z" agent="Mozilla/5.0 (Windows NT 10.0; Win64; x64) AppleWebKit/537.36 (KHTML, like Gecko) Chrome/122.0.0.0 Safari/537.36" version="24.0.5" etag="jVEA3GJbbzjDCN7Zum6M" type="github">
  <diagram name="Страница — 1" id="jfs0I3XlGHReQJGSgwva">
    <mxGraphModel>
      <root>
        <mxCell id="0" />
        <mxCell id="1" parent="0" />
      </root>
    </mxGraphModel>
  </diagram>
</mxfile>
